<?xml version="1.0" encoding="UTF-8"?>
<svg id="Layer_1" data-name="Layer 1" xmlns="http://www.w3.org/2000/svg" viewBox="0 0 26 26">
    <defs>
        <style>
            .cls-1 {
            fill: #493606;
            }

            .cls-2 {
            fill: #dba213;
            }

            .cls-3 {
            fill: #aa7e0f;
            }
        </style>
    </defs>
    <polygon points="25 24 25 25 26 25 26 24 26 23 26 22 25 22 25 23 25 24"/>
    <polygon points="25 1 25 2 25 3 25 4 26 4 26 3 26 2 26 1 25 1"/>
    <polygon class="cls-1" points="24 23 24 24 23 24 22 24 22 25 23 25 24 25 25 25 25 24 25 23 25 22 24 22 24 23"/>
    <polygon points="24 22 25 22 25 21 25 20 24 20 24 21 24 22"/>
    <polygon points="24 12 24 13 24 14 24 15 24 16 25 16 25 15 25 14 25 13 25 12 25 11 25 10 24 10 24 11 24 12"/>
    <polygon points="24 5 24 6 25 6 25 5 25 4 24 4 24 5"/>
    <polygon class="cls-1" points="25 2 24 2 24 3 24 4 25 4 25 3 25 2"/>
    <polygon points="23 25 22 25 22 26 23 26 24 26 25 26 25 25 24 25 23 25"/>
    <polygon class="cls-1" points="23 21 23 22 24 22 24 21 24 20 23 20 23 21"/>
    <polygon points="23 17 23 18 23 19 23 20 24 20 24 19 24 18 24 17 24 16 23 16 23 17"/>
    <polygon class="cls-1" points="23 11 23 12 23 13 23 14 23 15 23 16 24 16 24 15 24 14 24 13 24 12 24 11 24 10 23 10 23 11"/>
    <polygon points="23 7 23 8 23 9 23 10 24 10 24 9 24 8 24 7 24 6 23 6 23 7"/>
    <polygon class="cls-1" points="24 4 23 4 23 5 23 6 24 6 24 5 24 4"/>
    <polygon points="24 1 25 1 25 0 24 0 23 0 22 0 22 1 23 1 24 1"/>
    <polygon class="cls-1" points="22 17 22 18 22 19 22 20 23 20 23 19 23 18 23 17 23 16 22 16 22 17"/>
    <polygon class="cls-1" points="22 7 22 8 22 9 22 10 23 10 23 9 23 8 23 7 23 6 22 6 22 7"/>
    <polygon class="cls-3" points="22 2 22 3 21 3 20 3 20 4 19 4 18 4 17 4 16 4 16 3 15 3 14 3 13 3 12 3 11 3 10 3 10 4 9 4 8 4 7 4 6 4 6 3 5 3 4 3 4 2 3 2 2 2 2 3 2 4 3 4 3 5 3 6 4 6 4 7 4 8 4 9 4 10 3 10 3 11 3 12 3 13 3 14 3 15 3 16 4 16 4 17 4 18 4 19 4 20 3 20 3 21 3 22 2 22 2 23 2 24 3 24 4 24 4 23 5 23 6 23 6 22 7 22 8 22 9 22 10 22 10 23 11 23 12 23 13 23 14 23 15 23 16 23 16 22 17 22 18 22 19 22 20 22 20 23 21 23 22 23 22 24 23 24 24 24 24 23 24 22 23 22 23 21 23 20 22 20 22 19 22 18 22 17 22 16 23 16 23 15 23 14 23 13 23 12 23 11 23 10 22 10 22 9 22 8 22 7 22 6 23 6 23 5 23 4 24 4 24 3 24 2 23 2 22 2"/>
    <polygon class="cls-2" points="23 2 24 2 25 2 25 1 24 1 23 1 22 1 22 2 23 2"/>
    <polygon points="21 24 20 24 20 25 21 25 22 25 22 24 21 24"/>
    <polygon class="cls-1" points="22 24 22 23 21 23 20 23 20 24 21 24 22 24"/>
    <polygon points="22 2 22 1 21 1 20 1 20 2 21 2 22 2"/>
    <polygon class="cls-2" points="21 3 22 3 22 2 21 2 20 2 20 3 21 3"/>
    <polygon points="19 23 18 23 17 23 16 23 16 24 17 24 18 24 19 24 20 24 20 23 19 23"/>
    <polygon class="cls-1" points="19 22 18 22 17 22 16 22 16 23 17 23 18 23 19 23 20 23 20 22 19 22"/>
    <polygon class="cls-2" points="17 4 18 4 19 4 20 4 20 3 19 3 18 3 17 3 16 3 16 4 17 4"/>
    <polygon points="17 3 18 3 19 3 20 3 20 2 19 2 18 2 17 2 16 2 16 3 17 3"/>
    <polygon class="cls-1" points="15 23 14 23 13 23 12 23 11 23 10 23 10 24 11 24 12 24 13 24 14 24 15 24 16 24 16 23 15 23"/>
    <polygon points="14 24 13 24 12 24 11 24 10 24 10 25 11 25 12 25 13 25 14 25 15 25 16 25 16 24 15 24 14 24"/>
    <polygon points="12 2 13 2 14 2 15 2 16 2 16 1 15 1 14 1 13 1 12 1 11 1 10 1 10 2 11 2 12 2"/>
    <polygon class="cls-2" points="11 3 12 3 13 3 14 3 15 3 16 3 16 2 15 2 14 2 13 2 12 2 11 2 10 2 10 3 11 3"/>
    <polygon points="9 23 8 23 7 23 6 23 6 24 7 24 8 24 9 24 10 24 10 23 9 23"/>
    <polygon class="cls-1" points="9 22 8 22 7 22 6 22 6 23 7 23 8 23 9 23 10 23 10 22 9 22"/>
    <polygon class="cls-2" points="7 4 8 4 9 4 10 4 10 3 9 3 8 3 7 3 6 3 6 4 7 4"/>
    <polygon points="7 3 8 3 9 3 10 3 10 2 9 2 8 2 7 2 6 2 6 3 7 3"/>
    <polygon class="cls-1" points="5 23 4 23 4 24 5 24 6 24 6 23 5 23"/>
    <polygon points="4 24 4 25 5 25 6 25 6 24 5 24 4 24"/>
    <polygon class="cls-2" points="4 2 4 3 5 3 6 3 6 2 5 2 4 2"/>
    <polygon points="5 2 6 2 6 1 5 1 4 1 4 2 5 2"/>
    <polygon class="cls-1" points="3 24 2 24 2 25 3 25 4 25 4 24 3 24"/>
    <polygon class="cls-2" points="4 19 4 18 4 17 4 16 3 16 3 17 3 18 3 19 3 20 4 20 4 19"/>
    <polygon class="cls-2" points="4 9 4 8 4 7 4 6 3 6 3 7 3 8 3 9 3 10 4 10 4 9"/>
    <polygon points="2 25 1 25 1 26 2 26 3 26 4 26 4 25 3 25 2 25"/>
    <polygon class="cls-2" points="2 22 3 22 3 21 3 20 2 20 2 21 2 22"/>
    <polygon points="3 19 3 18 3 17 3 16 2 16 2 17 2 18 2 19 2 20 3 20 3 19"/>
    <polygon class="cls-2" points="3 15 3 14 3 13 3 12 3 11 3 10 2 10 2 11 2 12 2 13 2 14 2 15 2 16 3 16 3 15"/>
    <polygon points="3 9 3 8 3 7 3 6 2 6 2 7 2 8 2 9 2 10 3 10 3 9"/>
    <polygon class="cls-2" points="3 5 3 4 2 4 2 5 2 6 3 6 3 5"/>
    <polygon class="cls-2" points="2 24 2 23 2 22 1 22 1 23 1 24 1 25 2 25 2 24"/>
    <polygon points="2 21 2 20 1 20 1 21 1 22 2 22 2 21"/>
    <polygon points="2 14 2 13 2 12 2 11 2 10 1 10 1 11 1 12 1 13 1 14 1 15 1 16 2 16 2 15 2 14"/>
    <polygon points="2 4 1 4 1 5 1 6 2 6 2 5 2 4"/>
    <polygon class="cls-2" points="2 3 2 2 3 2 4 2 4 1 3 1 2 1 1 1 1 2 1 3 1 4 2 4 2 3"/>
    <polygon points="1 23 1 22 0 22 0 23 0 24 0 25 1 25 1 24 1 23"/>
    <polygon points="1 2 1 1 2 1 3 1 4 1 4 0 3 0 2 0 1 0 0 0 0 1 0 2 0 3 0 4 1 4 1 3 1 2"/>
</svg>