<?xml version="1.0" encoding="UTF-8"?>
<svg id="Layer_1" data-name="Layer 1" xmlns="http://www.w3.org/2000/svg" viewBox="0 0 26 26">
    <defs>
        <style>
            .cls-1 {
            fill: #555;
            }

            .cls-2 {
            fill: #fff;
            }

            .cls-3 {
            fill: #c6c6c6;
            }
        </style>
    </defs>
    <polygon points="24 3 24 4 24 5 24 6 24 7 24 8 24 9 24 10 24 11 24 12 24 13 24 14 24 15 24 16 24 17 24 18 24 19 24 20 24 21 24 22 24 23 25 23 25 22 25 21 25 20 25 19 25 18 25 17 25 16 25 15 25 14 25 13 25 12 25 11 25 10 25 9 25 8 25 7 25 6 25 5 25 4 25 3 24 3"/>
    <rect x="23" y="23" width="1" height="1"/>
    <polygon class="cls-1" points="24 21 24 20 24 19 24 18 24 17 24 16 24 15 24 14 24 13 24 12 24 11 24 10 24 9 24 8 24 7 24 6 24 5 24 4 24 3 23 3 23 4 23 5 23 6 23 7 23 8 23 9 23 10 23 11 23 12 23 13 23 14 23 15 23 16 23 17 23 18 23 19 23 20 23 21 23 22 23 23 24 23 24 22 24 21"/>
    <rect x="23" y="2" width="1" height="1"/>
    <polygon class="cls-1" points="22 23 21 23 20 23 19 23 18 23 17 23 16 23 15 23 14 23 13 23 12 23 11 23 10 23 9 23 8 23 7 23 6 23 5 23 4 23 3 23 3 24 4 24 5 24 6 24 7 24 8 24 9 24 10 24 11 24 12 24 13 24 14 24 15 24 16 24 17 24 18 24 19 24 20 24 21 24 22 24 23 24 23 23 22 23"/>
    <polygon points="21 24 20 24 19 24 18 24 17 24 16 24 15 24 14 24 13 24 12 24 11 24 10 24 9 24 8 24 7 24 6 24 5 24 4 24 3 24 3 25 4 25 5 25 6 25 7 25 8 25 9 25 10 25 11 25 12 25 13 25 14 25 15 25 16 25 17 25 18 25 19 25 20 25 21 25 22 25 23 25 23 24 22 24 21 24"/>
    <polygon class="cls-3" points="21 3 20 3 19 3 18 3 17 3 16 3 15 3 14 3 13 3 12 3 11 3 10 3 9 3 8 3 7 3 6 3 5 3 4 3 3 3 3 4 3 5 3 6 3 7 3 8 3 9 3 10 3 11 3 12 3 13 3 14 3 15 3 16 3 17 3 18 3 19 3 20 3 21 3 22 3 23 4 23 5 23 6 23 7 23 8 23 9 23 10 23 11 23 12 23 13 23 14 23 15 23 16 23 17 23 18 23 19 23 20 23 21 23 22 23 23 23 23 22 23 21 23 20 23 19 23 18 23 17 23 16 23 15 23 14 23 13 23 12 23 11 23 10 23 9 23 8 23 7 23 6 23 5 23 4 23 3 22 3 21 3"/>
    <polygon points="5 2 6 2 7 2 8 2 9 2 10 2 11 2 12 2 13 2 14 2 15 2 16 2 17 2 18 2 19 2 20 2 21 2 22 2 23 2 23 1 22 1 21 1 20 1 19 1 18 1 17 1 16 1 15 1 14 1 13 1 12 1 11 1 10 1 9 1 8 1 7 1 6 1 5 1 4 1 3 1 3 2 4 2 5 2"/>
    <polygon class="cls-2" points="4 3 5 3 6 3 7 3 8 3 9 3 10 3 11 3 12 3 13 3 14 3 15 3 16 3 17 3 18 3 19 3 20 3 21 3 22 3 23 3 23 2 22 2 21 2 20 2 19 2 18 2 17 2 16 2 15 2 14 2 13 2 12 2 11 2 10 2 9 2 8 2 7 2 6 2 5 2 4 2 3 2 3 3 4 3"/>
    <rect x="2" y="23" width="1" height="1"/>
    <polygon class="cls-2" points="3 22 3 21 3 20 3 19 3 18 3 17 3 16 3 15 3 14 3 13 3 12 3 11 3 10 3 9 3 8 3 7 3 6 3 5 3 4 3 3 2 3 2 4 2 5 2 6 2 7 2 8 2 9 2 10 2 11 2 12 2 13 2 14 2 15 2 16 2 17 2 18 2 19 2 20 2 21 2 22 2 23 3 23 3 22"/>
    <rect x="2" y="2" width="1" height="1"/>
    <polygon points="2 21 2 20 2 19 2 18 2 17 2 16 2 15 2 14 2 13 2 12 2 11 2 10 2 9 2 8 2 7 2 6 2 5 2 4 2 3 1 3 1 4 1 5 1 6 1 7 1 8 1 9 1 10 1 11 1 12 1 13 1 14 1 15 1 16 1 17 1 18 1 19 1 20 1 21 1 22 1 23 2 23 2 22 2 21"/>
</svg>